<svg width="79" height="58" viewBox="0 0 79 58" fill="none" xmlns="http://www.w3.org/2000/svg">
<path d="M3.70777 40V23.72H0.867771V20.16H3.70777V17.28C3.70777 15.12 4.2411 13.5733 5.30777 12.64C6.4011 11.68 7.93444 11.2 9.90777 11.2H11.9878V14.8H10.5478C9.61444 14.8 8.94777 15 8.54777 15.4C8.14777 15.7733 7.94777 16.4133 7.94777 17.32V20.16H12.5078V23.72H7.94777V40H3.70777ZM16.5478 40V11.2H20.7878V40H16.5478ZM35.4643 40.48C33.571 40.48 31.8643 40.0533 30.3443 39.2C28.851 38.32 27.6643 37.1067 26.7843 35.56C25.9043 33.9867 25.4643 32.16 25.4643 30.08C25.4643 28 25.9043 26.1867 26.7843 24.64C27.691 23.0667 28.9043 21.8533 30.4243 21C31.9443 20.12 33.6377 19.68 35.5043 19.68C37.3977 19.68 39.091 20.12 40.5843 21C42.1043 21.8533 43.3043 23.0667 44.1843 24.64C45.091 26.1867 45.5443 28 45.5443 30.08C45.5443 32.16 45.091 33.9867 44.1843 35.56C43.3043 37.1067 42.1043 38.32 40.5843 39.2C39.0643 40.0533 37.3577 40.48 35.4643 40.48ZM35.4643 36.84C36.4777 36.84 37.411 36.5867 38.2643 36.08C39.1443 35.5733 39.851 34.8267 40.3843 33.84C40.9177 32.8267 41.1843 31.5733 41.1843 30.08C41.1843 28.5867 40.9177 27.3467 40.3843 26.36C39.8777 25.3467 39.1843 24.5867 38.3043 24.08C37.451 23.5733 36.5177 23.32 35.5043 23.32C34.491 23.32 33.5443 23.5733 32.6643 24.08C31.811 24.5867 31.1177 25.3467 30.5843 26.36C30.051 27.3467 29.7843 28.5867 29.7843 30.08C29.7843 31.5733 30.051 32.8267 30.5843 33.84C31.1177 34.8267 31.811 35.5733 32.6643 36.08C33.5177 36.5867 34.451 36.84 35.4643 36.84ZM53.3475 40L47.5075 20.16H51.7475L55.5875 35.12L59.9075 20.16H64.6275L68.9475 35.12L72.7875 20.16H77.0275L71.1875 40H66.8275L62.2675 24.4L57.7075 40H53.3475Z" fill="black"/>
<path d="M1.00726 48.6044C1.00726 48.6044 23.4227 50.0051 37.8639 49.7584C52.3051 49.5117 74.6596 47.3461 74.6596 47.3461L74.7533 52.8327C74.7533 52.8327 52.5647 56.2302 37.9787 56.4794C23.3927 56.7286 1.101 54.091 1.101 54.091L1.00726 48.6044Z" fill="black"/>
</svg>

