<svg width="40" height="40" viewBox="0 0 40 40" fill="none" xmlns="http://www.w3.org/2000/svg">
<path d="M25.9025 21.0192C25.596 23.857 23.0475 25.9047 20.2086 25.5984C17.3698 25.292 15.3213 22.7445 15.6277 19.9067C15.9342 17.0689 18.4827 15.0211 21.3216 15.3275C24.1524 15.6338 26.2089 18.1814 25.9025 21.0192ZM18.9827 39.9728C7.15146 39.352 -1.30867 28.8312 0.167213 17.4478C1.07049 10.4662 5.47395 4.79862 11.3856 1.96889C24.3701 -4.24685 39.5887 4.98405 39.9919 19.431C40.3226 31.282 30.443 40.5694 18.9827 39.9728ZM33.4916 25.4613C35.7417 15.9483 20.5473 8.86183 14.3615 6.58031C9.72418 11.1192 8.78864 21.7851 11.6356 34.3456C17.1843 35.6193 25.2734 32.2172 33.4916 25.4613Z" fill="black"/>
</svg>
